# xmcd
#
# Track frame offsets:
#	150
#	18526
#	36857
#	59947
#	77688
#	95582
#	116862
#	139559
#
# Disc length: 2126 seconds
#
# Revision: 162522205
# Processed by: cddbd v1.5.2PL0 Copyright (c) Steve Scherf et al.
# Submitted via: EZCDAudioConverter 8.0.2.1
#
DISCID=6f084c08
DTITLE=Thanh Thảo - Thảo. Người Thứ 3
DYEAR=2010
DGENRE=World Pop
TTITLE0=Thanh Thảo - Nếu như anh không về
TTITLE1=Thanh Thảo - Người Thứ 3
TTITLE2=Thanh Thảo - Mưa mùa đông
TTITLE3=Thanh Thảo - Cảm giác lạ
TTITLE4=Thanh Thảo, Justin Nguyễn - Tình đắn đo
TTITLE5=Thanh Thảo - Đành thôi anh hỡi
TTITLE6=Thanh Thảo - Chia tay lần nữa
TTITLE7=Thanh Thảo - Vị ngọt đôi môi (Remix)
EXTD=
EXTT0=
EXTT1=
EXTT2=
EXTT3=
EXTT4=
EXTT5=
EXTT6=
EXTT7=
PLAYORDER=
